# xmcd
#
# Track frame offsets:
# 150
# 10245
# 24427
# 37482
# 46237
# 58910
# 78172
# 96617
# 110555
# 122382
# 136827
# 148245
# 159655
# 174090
# 187297
# 201292
# 215250
# 226240
#
# Disc length: 3193 seconds
#
# Revision: 0
# Processed by: cddbd v1.5.1PL0 Copyright (c) Steve Scherf et al.
# Submitted via: Audion 3.0.2 (http://www.panic.com/audion/)
#
DISCID=020c7712
DTITLE=Judy Garland - The Great Judy Garland [CD2]
DYEAR=1900
DGENRE=
TTITLE0=Swanee
TTITLE1=Oceans Apart
TTITLE2=Embraceable You
TTITLE3=I'm Just Wild About Harry
TTITLE4=Over The Rainbow
TTITLE5=Sweet Sixteen
TTITLE6=In-Between
TTITLE7=Ten Pins In The Sky
TTITLE8=It Never Rains, But What It Pours
TTITLE9=Sleep, My Baby, Sleep
TTITLE10=Cry, Baby, Cry
TTITLE11=You Can't Have Everything
TTITLE12=(Dear Mr Gable) You Made Me Love You
TTITLE13=Everybody Sing
TTITLE14=All God's Chillun Got Rhythm
TTITLE15=Swing Mister Charlie
TTITLE16=Stompin' At The Savoy
TTITLE17=Zing Went The Strings Of My Heart
EXTD=
EXTT0=
EXTT1=
EXTT2=
EXTT3=
EXTT4=
EXTT5=
EXTT6=
EXTT7=
EXTT8=
EXTT9=
EXTT10=
EXTT11=
EXTT12=
EXTT13=
EXTT14=
EXTT15=
EXTT16=
EXTT17=
PLAYORDER=
